{
    "asset" : {
        "generator" : "Khronos glTF Blender I/O v1.8.18",
        "version" : "2.0"
    },
    "scene" : 0,
    "scenes" : [
        {
            "name" : "Scene",
            "nodes" : [
                0
            ]
        }
    ],
    "nodes" : [
        {
            "mesh" : 0,
            "name" : "pico-png"
        }
    ],
    "materials" : [
        {
            "doubleSided" : true,
            "name" : "pico-png",
            "pbrMetallicRoughness" : {
                "baseColorTexture" : {
                    "index" : 0
                },
                "metallicFactor" : 0,
                "roughnessFactor" : 0.5
            }
        },
        {
            "doubleSided" : true,
            "name" : "Material",
            "pbrMetallicRoughness" : {
                "baseColorFactor" : [
                    0.08688653260469437,
                    0.08688653260469437,
                    0.08688653260469437,
                    1
                ],
                "metallicFactor" : 0,
                "roughnessFactor" : 0.5
            }
        }
    ],
    "meshes" : [
        {
            "name" : "pico-png",
            "primitives" : [
                {
                    "attributes" : {
                        "POSITION" : 0,
                        "NORMAL" : 1,
                        "TEXCOORD_0" : 2
                    },
                    "indices" : 3,
                    "material" : 0
                },
                {
                    "attributes" : {
                        "POSITION" : 4,
                        "NORMAL" : 5,
                        "TEXCOORD_0" : 6
                    },
                    "indices" : 7,
                    "material" : 1
                }
            ]
        }
    ],
    "textures" : [
        {
            "sampler" : 0,
            "source" : 0
        }
    ],
    "images" : [
        {
            "mimeType" : "image/png",
            "name" : "pico-png",
            "uri" : "pico-png.png"
        }
    ],
    "accessors" : [
        {
            "bufferView" : 0,
            "componentType" : 5126,
            "count" : 1805,
            "max" : [
                0.20303605496883392,
                0.0807778462767601,
                0.5
            ],
            "min" : [
                -0.20303605496883392,
                0,
                -0.5
            ],
            "type" : "VEC3"
        },
        {
            "bufferView" : 1,
            "componentType" : 5126,
            "count" : 1805,
            "type" : "VEC3"
        },
        {
            "bufferView" : 2,
            "componentType" : 5126,
            "count" : 1805,
            "type" : "VEC2"
        },
        {
            "bufferView" : 3,
            "componentType" : 5123,
            "count" : 3522,
            "type" : "SCALAR"
        },
        {
            "bufferView" : 4,
            "componentType" : 5126,
            "count" : 211,
            "max" : [
                0.20303605496883392,
                0,
                0.5
            ],
            "min" : [
                -0.20303605496883392,
                0,
                -0.5
            ],
            "type" : "VEC3"
        },
        {
            "bufferView" : 5,
            "componentType" : 5126,
            "count" : 211,
            "type" : "VEC3"
        },
        {
            "bufferView" : 6,
            "componentType" : 5126,
            "count" : 211,
            "type" : "VEC2"
        },
        {
            "bufferView" : 7,
            "componentType" : 5123,
            "count" : 792,
            "type" : "SCALAR"
        }
    ],
    "bufferViews" : [
        {
            "buffer" : 0,
            "byteLength" : 21660,
            "byteOffset" : 0
        },
        {
            "buffer" : 0,
            "byteLength" : 21660,
            "byteOffset" : 21660
        },
        {
            "buffer" : 0,
            "byteLength" : 14440,
            "byteOffset" : 43320
        },
        {
            "buffer" : 0,
            "byteLength" : 7044,
            "byteOffset" : 57760
        },
        {
            "buffer" : 0,
            "byteLength" : 2532,
            "byteOffset" : 64804
        },
        {
            "buffer" : 0,
            "byteLength" : 2532,
            "byteOffset" : 67336
        },
        {
            "buffer" : 0,
            "byteLength" : 1688,
            "byteOffset" : 69868
        },
        {
            "buffer" : 0,
            "byteLength" : 1584,
            "byteOffset" : 71556
        }
    ],
    "samplers" : [
        {
            "magFilter" : 9729,
            "minFilter" : 9987,
            "wrapS" : 33071,
            "wrapT" : 33071
        }
    ],
    "buffers" : [
        {
            "byteLength" : 73140,
            "uri" : "pico-w.bin"
        }
    ]
}
